<svg fill="#111111" role="img" viewBox="0 0 24 24" xmlns="http://www.w3.org/2000/svg">
  <title>Arc</title>
  <path d="M23.937 8.509c.147-.715.037-1.466-.336-2.097-.42-.709-1.104-1.187-1.908-1.35a2.918 2.918 0 0 0-.562-.058h-.01c-1.377 0-2.533.988-2.807 2.338a6.57 6.57 0 0 1-.919 2.27.263.263 0 0 1-.457-.026L14.079 3.596c-.362-.762-1.014-1.361-1.823-1.598-1.387-.41-2.817.284-3.405 1.524L5.897 9.733c-.079.163-.31.158-.378-.005a2.86 2.86 0 0 0-2.665-1.802c-.378 0-.751.073-1.109.22-1.471.615-2.128 2.35-1.518 3.82.557 1.33 1.471 2.586 2.659 3.669.084.079.11.2.063.305l-.956 2.007c-.673 1.419-.132 3.148 1.266 3.857.41.205.846.31 1.298.31 1.103 0 2.123-.641 2.596-1.64l.825-1.728a.254.254 0 0 1 .305-.137c1.003.273 2.012.42 3.005.42 1.12 0 2.223-.168 3.29-.478a.263.263 0 0 1 .31.137l.814 1.713c.484 1.019 1.493 1.713 2.617 1.718.457 0 .899-.1 1.314-.31 1.403-.71 1.939-2.444 1.266-3.868l-1.024-2.154c-.047-.105-.026-.226.058-.305 1.986-1.85 3.452-4.272 4.004-6.973ZM6.212 20.017a1.835 1.835 0 0 1-2.465.857c-.904-.447-1.246-1.572-.81-2.48l.795-1.666c.068-.147.257-.2.383-.105.168.12.342.236.52.352.699.447 1.43.825 2.181 1.135.142.058.205.216.142.352l-.746 1.555Zm5.076-2.044c-4.209 0-8.655-2.853-10.126-6.495a1.829 1.829 0 0 1 1.009-2.38c.226-.09.457-.137.683-.137.725 0 1.408.431 1.698 1.145.919 2.281 4.004 4.21 6.736 4.21.42 0 .841-.042 1.256-.116a.264.264 0 0 1 .284.142l1.377 2.9c.068.148-.01.321-.163.363-.899.236-1.818.368-2.754.368Zm-.599-4.93.636-1.334c.052-.105.205-.105.257 0l.62 1.303c.042.084-.015.19-.105.205a5.972 5.972 0 0 1-1.288.032c-.11-.016-.163-.121-.12-.205Zm8.461 7.826a1.83 1.83 0 0 1-2.465-.857L11.698 9.528c-.1-.21-.4-.21-.494 0l-1.545 3.253a.262.262 0 0 1-.321.137c-1.051-.363-2.049-.978-2.79-1.719a.255.255 0 0 1-.047-.294l3.342-7.031c.116-.247.294-.468.52-.62 1.051-.689 2.281-.258 2.738.704l6.858 14.425c.43.914.094 2.039-.81 2.486Zm-1.445-9.649a.258.258 0 0 1 .031-.273c.783-1.004 1.356-2.176 1.603-3.421.173-.867.935-1.471 1.792-1.471.147 0 .294.016.447.052.972.242 1.534 1.251 1.329 2.234-.484 2.301-1.682 4.387-3.316 6.022-.132.131-.347.094-.426-.069l-1.46-3.074Z"/>
</svg>
